# xmcd
#
# Track frame offsets:
#	150
#	15044
#	29147
#	39281
#	53521
#	65599
#
# Disc length: 1072 seconds
# Revision: 0
# Processed by: cddbd v1.5.2PL0 Copyright (c) Steve Scherf et al.
# Submitted via: dBpowerAMP V12.0
#
DISCID=3f042e06
DTITLE=Balsam Range - It's Christmas Time
DYEAR=2017
DGENRE=Holiday
TTITLE0=Christmas Lullaby
TTITLE1=The First Noel
TTITLE2=Rockin' Around The Christmas Tree
TTITLE3=I'm Going Home, It's Christmas Time
TTITLE4=Hark! The Harold Angels Sing
TTITLE5=Jingle Bells
EXTD=
EXTT0=
EXTT1=
EXTT2=
EXTT3=
EXTT4=
EXTT5=
PLAYORDER=
